<?xml version="1.0" encoding="UTF-8"?>
<!DOCTYPE svg PUBLIC "-//W3C//DTD SVG 1.1//EN" "http://www.w3.org/Graphics/SVG/1.1/DTD/svg11.dtd">
<svg xmlns="http://www.w3.org/2000/svg" version="1.1" width="318px" height="159px" style="shape-rendering:geometricPrecision; text-rendering:geometricPrecision; image-rendering:optimizeQuality; fill-rule:evenodd; clip-rule:evenodd" xmlns:xlink="http://www.w3.org/1999/xlink">
<g><path style="opacity:1" fill="#000000" d="M -0.5,-0.5 C 105.5,-0.5 211.5,-0.5 317.5,-0.5C 317.5,52.5 317.5,105.5 317.5,158.5C 211.5,158.5 105.5,158.5 -0.5,158.5C -0.5,105.5 -0.5,52.5 -0.5,-0.5 Z"/></g>
<g><path style="opacity:1" fill="#f5f5f5" d="M 139.5,93.5 C 138.512,72.5755 138.179,51.5755 138.5,30.5C 139.791,30.7373 140.791,30.404 141.5,29.5C 149.527,28.053 157.527,28.2196 165.5,30C 176.302,34.4438 179.135,41.9438 174,52.5C 171.736,55.4335 168.902,57.6001 165.5,59C 177.593,63.9428 181.093,72.4428 176,84.5C 169.166,91.8439 160.666,95.1772 150.5,94.5C 146.799,94.3733 143.132,94.04 139.5,93.5 Z"/></g>
<g><path style="opacity:1" fill="#f5f5f5" d="M 207.5,28.5 C 209.144,28.2865 210.644,28.6198 212,29.5C 220.139,50.7535 227.972,72.0868 235.5,93.5C 232.753,93.8134 230.086,93.48 227.5,92.5C 225.095,86.9492 223.095,81.2825 221.5,75.5C 213.5,75.5 205.5,75.5 197.5,75.5C 195.778,81.1682 193.944,86.8349 192,92.5C 189.263,93.6105 186.429,93.7772 183.5,93C 191.994,71.6862 199.994,50.1862 207.5,28.5 Z"/></g>
<g><path style="opacity:1" fill="#f4f4f4" d="M 80.5,29.5 C 96.5,29.5 112.5,29.5 128.5,29.5C 128.5,31.8333 128.5,34.1667 128.5,36.5C 121.833,36.5 115.167,36.5 108.5,36.5C 108.5,55.5 108.5,74.5 108.5,93.5C 105.833,93.5 103.167,93.5 100.5,93.5C 100.5,74.5 100.5,55.5 100.5,36.5C 93.8333,36.5 87.1667,36.5 80.5,36.5C 80.5,34.1667 80.5,31.8333 80.5,29.5 Z"/></g>
<g><path style="opacity:1" fill="#cacaca" d="M 141.5,29.5 C 140.791,30.404 139.791,30.7373 138.5,30.5C 138.179,51.5755 138.512,72.5755 139.5,93.5C 137.511,72.5262 136.844,51.1928 137.5,29.5C 138.833,29.5 140.167,29.5 141.5,29.5 Z"/></g>
<g><path style="opacity:1" fill="#040404" d="M 145.5,35.5 C 151.245,35.2111 156.912,35.7111 162.5,37C 166.235,38.7997 167.902,41.7997 167.5,46C 166.694,51.8122 163.361,55.4788 157.5,57C 153.514,57.4988 149.514,57.6655 145.5,57.5C 145.5,50.1667 145.5,42.8333 145.5,35.5 Z"/></g>
<g><path style="opacity:1" fill="#090909" d="M 218.5,68.5 C 212.642,68.8222 206.975,68.4889 201.5,67.5C 204.04,59.0461 206.873,50.7128 210,42.5C 212.536,51.2731 215.369,59.9398 218.5,68.5 Z"/></g>
<g><path style="opacity:1" fill="#030303" d="M 145.5,64.5 C 150.844,64.334 156.177,64.5006 161.5,65C 169.064,67.6301 171.564,72.7968 169,80.5C 166.831,84.0103 163.664,86.177 159.5,87C 154.845,87.4992 150.179,87.6658 145.5,87.5C 145.5,79.8333 145.5,72.1667 145.5,64.5 Z"/></g>
<g><path style="opacity:1" fill="#656565" d="M 201.5,67.5 C 206.975,68.4889 212.642,68.8222 218.5,68.5C 212.654,69.8166 206.654,69.8166 200.5,68.5C 200.624,67.8933 200.957,67.56 201.5,67.5 Z"/></g>
<g><path style="opacity:1" fill="#e6e6e6" d="M 76.5,117.5 C 82.5653,116.166 84.5653,116.166 82.5,117.5C 81.8333,133.5 81.1667,133.5 80.5,117.5C 79.1667,117.5 77.8333,117.5 76.5,117.5 Z"/></g>
<g><path style="opacity:1" fill="#6b6b6b" d="M 196.5,116.5 C 195.515,120.634 195.182,124.968 195.5,129.5C 194.188,124.985 194.188,120.318 195.5,115.5C 196.107,115.624 196.44,115.957 196.5,116.5 Z"/></g>
<g><path style="opacity:1" fill="#c9c9c9" d="M 229.5,115.5 C 238.985,116.14 241.318,120.473 236.5,128.5C 233.916,129.393 231.249,129.726 228.5,129.5C 228.226,124.737 228.559,120.07 229.5,115.5 Z"/></g>
<g><path style="opacity:1" fill="#dbdbdb" d="M 91.5,115.5 C 98.1045,116.334 100.271,120.001 98,126.5C 96.3342,129.379 93.8342,130.212 90.5,129C 89.3333,128.5 88.5,127.667 88,126.5C 86.6631,121.872 87.8298,118.205 91.5,115.5 Z"/></g>
<g><path style="opacity:1" fill="#090909" d="M 91.5,117.5 C 95.0624,117.564 96.7291,119.397 96.5,123C 96.6039,127.249 94.7705,128.749 91,127.5C 88.8723,123.975 89.0389,120.642 91.5,117.5 Z"/></g>
<g><path style="opacity:1" fill="#e4e4e4" d="M 185.5,127.5 C 186.833,128.167 188.167,128.833 189.5,129.5C 186.956,129.896 184.789,129.229 183,127.5C 182.175,123.789 182.341,120.122 183.5,116.5C 184.167,120.313 184.834,123.979 185.5,127.5 Z"/></g>
<g><path style="opacity:1" fill="#4e4e4e" d="M 203.5,116.5 C 203.56,115.957 203.893,115.624 204.5,115.5C 205.833,120.5 205.833,125.5 204.5,130.5C 203.893,130.376 203.56,130.043 203.5,129.5C 204.833,125.167 204.833,120.833 203.5,116.5 Z"/></g>
<g><path style="opacity:1" fill="#e8e8e8" d="M 218.5,116.5 C 221.187,116.336 223.854,116.503 226.5,117C 224.527,117.495 222.527,117.662 220.5,117.5C 220.5,118.833 220.5,120.167 220.5,121.5C 227.167,122.167 227.167,122.833 220.5,123.5C 220.5,125.167 220.5,126.833 220.5,128.5C 222.527,128.338 224.527,128.505 226.5,129C 223.854,129.497 221.187,129.664 218.5,129.5C 218.5,125.167 218.5,120.833 218.5,116.5 Z"/></g>
<g><path style="opacity:1" fill="#141414" d="M 230.5,117.5 C 234.58,117.081 236.58,118.914 236.5,123C 236.58,127.086 234.58,128.919 230.5,128.5C 230.5,124.833 230.5,121.167 230.5,117.5 Z"/></g>
<g><path style="opacity:1" fill="#cecece" d="M 106.5,115.5 C 110.07,114.893 112.737,116.06 114.5,119C 114.044,122.108 113.878,125.275 114,128.5C 111.619,129.435 109.119,129.768 106.5,129.5C 106.5,124.833 106.5,120.167 106.5,115.5 Z"/></g>
<g><path style="opacity:1" fill="#000000" d="M 108.5,117.5 C 110.346,117.222 111.68,117.889 112.5,119.5C 111.68,121.111 110.346,121.778 108.5,121.5C 108.5,120.167 108.5,118.833 108.5,117.5 Z"/></g>
<g><path style="opacity:1" fill="#d2d2d2" d="M 143.5,115.5 C 146.439,117.988 148.939,120.988 151,124.5C 151.179,121.447 151.679,118.447 152.5,115.5C 153.662,120.131 153.828,124.798 153,129.5C 150.425,126.681 148.092,123.681 146,120.5C 145.821,123.553 145.321,126.553 144.5,129.5C 143.507,124.88 143.173,120.214 143.5,115.5 Z"/></g>
<g><path style="opacity:1" fill="#e7e7e7" d="M 196.5,116.5 C 198.657,119.471 200.824,122.471 203,125.5C 203.498,122.518 203.665,119.518 203.5,116.5C 204.833,120.833 204.833,125.167 203.5,129.5C 201.552,126.379 199.385,123.379 197,120.5C 196.819,123.695 196.319,126.695 195.5,129.5C 195.182,124.968 195.515,120.634 196.5,116.5 Z"/></g>
<g><path style="opacity:1" fill="#d5d5d5" d="M 117.5,116.5 C 119.857,116.337 122.19,116.503 124.5,117C 122.866,117.494 121.199,117.66 119.5,117.5C 119.5,118.833 119.5,120.167 119.5,121.5C 126.167,122.167 126.167,122.833 119.5,123.5C 119.5,124.833 119.5,126.167 119.5,127.5C 121.288,127.215 122.955,127.548 124.5,128.5C 122.257,129.474 119.924,129.808 117.5,129.5C 117.5,125.167 117.5,120.833 117.5,116.5 Z"/></g>
<g><path style="opacity:1" fill="#dcdcdc" d="M 156.5,115.5 C 159.136,118.31 161.636,121.31 164,124.5C 164.182,121.774 164.682,119.107 165.5,116.5C 168.022,131.166 165.855,132.499 159,120.5C 158.821,123.553 158.321,126.553 157.5,129.5C 156.507,124.88 156.173,120.214 156.5,115.5 Z"/></g>
<g><path style="opacity:1" fill="#000000" d="M 108.5,123.5 C 111.5,123.167 112.833,124.5 112.5,127.5C 111.167,127.5 109.833,127.5 108.5,127.5C 108.5,126.167 108.5,124.833 108.5,123.5 Z"/></g>
<g><path style="opacity:1" fill="#dfdfdf" d="M 211.5,115.5 C 213.429,115.231 215.095,115.731 216.5,117C 210.046,117.132 207.879,120.298 210,126.5C 212.078,128.385 214.245,129.051 216.5,128.5C 208.858,130.355 206.024,127.355 208,119.5C 208.69,117.65 209.856,116.316 211.5,115.5 Z"/></g>
<g><path style="opacity:1" fill="#d5d5d5" d="M 136.5,115.5 C 138.578,119.874 140.578,124.374 142.5,129C 139.965,127.332 136.965,126.499 133.5,126.5C 133.719,127.675 133.386,128.675 132.5,129.5C 132.746,124.733 134.079,120.067 136.5,115.5 Z"/></g>
<g><path style="opacity:1" fill="#0b0b0b" d="M 136.5,120.5 C 138.94,123.078 138.606,124.412 135.5,124.5C 135.433,123.041 135.766,121.708 136.5,120.5 Z"/></g>
<g><path style="opacity:1" fill="#d8d8d8" d="M 172.5,115.5 C 181.011,117.328 182.677,121.828 177.5,129C 174.653,129.944 172.153,129.444 170,127.5C 168.773,122.938 169.607,118.938 172.5,115.5 Z"/></g>
<g><path style="opacity:1" fill="#141414" d="M 172.5,117.5 C 177.49,117.78 179.324,120.447 178,125.5C 176.522,128.993 174.522,129.326 172,126.5C 171.264,123.408 171.431,120.408 172.5,117.5 Z"/></g>
<g><path style="opacity:1" fill="#b1b1b1" d="M 189.5,129.5 C 188.167,128.833 186.833,128.167 185.5,127.5C 187.144,127.714 188.644,127.38 190,126.5C 191.331,111.833 191.997,111.833 192,126.5C 191.623,127.942 190.79,128.942 189.5,129.5 Z"/></g>
</svg>
