<?xml version="1.0" encoding="UTF-8"?>
<!DOCTYPE svg PUBLIC "-//W3C//DTD SVG 1.1//EN" "http://www.w3.org/Graphics/SVG/1.1/DTD/svg11.dtd">
<svg xmlns="http://www.w3.org/2000/svg" version="1.1" width="600px" height="310px" style="shape-rendering:geometricPrecision; text-rendering:geometricPrecision; image-rendering:optimizeQuality; fill-rule:evenodd; clip-rule:evenodd" xmlns:xlink="http://www.w3.org/1999/xlink">
<g><path style="opacity:1" fill="#6a6a6a" d="M 192.5,57.5 C 191.167,58.1667 189.833,58.8333 188.5,59.5C 192.881,49.6406 194.881,39.3072 194.5,28.5C 162.892,34.7845 146.892,54.1178 146.5,86.5C 147.833,86.5 149.167,86.5 150.5,86.5C 149.081,87.4511 147.415,87.7845 145.5,87.5C 145.664,84.8127 145.497,82.146 145,79.5C 144.667,82.5 144.333,85.5 144,88.5C 143.503,86.1902 143.337,83.8568 143.5,81.5C 146.009,49.6526 163.009,30.6526 194.5,24.5C 195.647,24.8178 196.481,25.4844 197,26.5C 198.962,37.3859 197.462,47.7193 192.5,57.5 Z"/></g>
<g><path style="opacity:1" fill="#2b2b2b" d="M 188.5,59.5 C 182.689,70.1433 174.356,78.3099 163.5,84C 159.246,85.3141 154.913,86.1474 150.5,86.5C 149.167,86.5 147.833,86.5 146.5,86.5C 146.892,54.1178 162.892,34.7845 194.5,28.5C 194.881,39.3072 192.881,49.6406 188.5,59.5 Z"/></g>
<g><path style="opacity:1" fill="#7a7a7a" d="M 192.5,57.5 C 187.545,68.2905 180.211,77.1238 170.5,84C 201.821,73.7414 227.487,81.5747 247.5,107.5C 240.511,113.656 234.011,120.323 228,127.5C 224.651,133.192 222.151,139.192 220.5,145.5C 219.732,144.737 219.232,143.737 219,142.5C 218.768,143.737 218.268,144.737 217.5,145.5C 219.56,133.878 224.894,124.045 233.5,116C 231.292,115.809 229.292,115.309 227.5,114.5C 230.187,114.664 232.854,114.497 235.5,114C 237.683,111.65 240.016,109.483 242.5,107.5C 233.49,94.4906 221.157,86.824 205.5,84.5C 199.681,83.3475 193.681,83.1808 187.5,84C 176.085,86.6871 164.752,89.6871 153.5,93C 149.507,93.1703 145.507,93.0037 141.5,92.5C 131.934,88.678 121.934,86.3447 111.5,85.5C 87.2446,82.5482 69.2446,91.8816 57.5,113.5C 56.8333,114.167 56.1667,114.833 55.5,115.5C 54.5084,115.672 53.8417,115.338 53.5,114.5C 68.0009,86.602 90.6675,76.102 121.5,83C 128.201,84.734 134.867,86.5673 141.5,88.5C 142.168,86.0312 142.835,83.6979 143.5,81.5C 143.337,83.8568 143.503,86.1902 144,88.5C 144.333,85.5 144.667,82.5 145,79.5C 145.497,82.146 145.664,84.8127 145.5,87.5C 147.415,87.7845 149.081,87.4511 150.5,86.5C 154.913,86.1474 159.246,85.3141 163.5,84C 174.356,78.3099 182.689,70.1433 188.5,59.5C 189.833,58.8333 191.167,58.1667 192.5,57.5 Z"/></g>
<g><path style="opacity:1" fill="#a6a6a6" d="M 205.5,84.5 C 204.127,84.3433 202.793,84.51 201.5,85C 204.028,85.9978 204.028,86.8311 201.5,87.5C 199.547,88.1556 197.547,88.4889 195.5,88.5C 195.5,89.5 195.5,90.5 195.5,91.5C 192.813,91.3359 190.146,91.5026 187.5,92C 188.938,92.2189 190.271,92.7189 191.5,93.5C 187.68,95.1448 183.68,95.8115 179.5,95.5C 179.5,96.8333 179.5,98.1667 179.5,99.5C 178.167,99.5 176.833,99.5 175.5,99.5C 175.5,100.833 175.5,102.167 175.5,103.5C 172.833,103.5 170.167,103.5 167.5,103.5C 167.5,104.833 167.5,106.167 167.5,107.5C 164.833,107.167 162.167,106.833 159.5,106.5C 159.5,108.167 159.5,109.833 159.5,111.5C 155.5,111.5 151.5,111.5 147.5,111.5C 147.5,112.833 147.5,114.167 147.5,115.5C 143.5,115.5 139.5,115.5 135.5,115.5C 135.5,116.833 135.5,118.167 135.5,119.5C 132.833,119.167 130.167,118.833 127.5,118.5C 127.5,120.167 127.5,121.833 127.5,123.5C 126.167,123.5 124.833,123.5 123.5,123.5C 123.5,124.833 123.5,126.167 123.5,127.5C 122.167,127.5 120.833,127.5 119.5,127.5C 119.5,126.167 119.5,124.833 119.5,123.5C 118.167,123.5 116.833,123.5 115.5,123.5C 115.5,124.833 115.5,126.167 115.5,127.5C 114.167,127.5 112.833,127.5 111.5,127.5C 111.5,129.5 111.5,131.5 111.5,133.5C 108.833,133.5 106.167,133.5 103.5,133.5C 103.5,132.5 103.5,131.5 103.5,130.5C 100.833,130.833 98.1667,131.167 95.5,131.5C 95.5,132.833 95.5,134.167 95.5,135.5C 91.5,135.5 87.5,135.5 83.5,135.5C 83.5,136.833 83.5,138.167 83.5,139.5C 80.8333,139.5 78.1667,139.5 75.5,139.5C 75.5,140.833 75.5,142.167 75.5,143.5C 70.4889,143.334 65.4889,143.501 60.5,144C 64.2649,145.377 63.9316,146.377 59.5,147C 55.4126,147.762 51.4126,147.596 47.5,146.5C 47.3677,143.43 47.701,140.43 48.5,137.5C 49.7498,137.577 50.5831,138.244 51,139.5C 51.2896,137.956 51.9563,136.623 53,135.5C 54.9562,135.784 57.1229,135.784 59.5,135.5C 59.5,134.5 59.5,133.5 59.5,132.5C 62.1667,132.167 64.8333,131.833 67.5,131.5C 67.5,130.5 67.5,129.5 67.5,128.5C 71.4659,127.838 75.4659,127.505 79.5,127.5C 79.5,126.167 79.5,124.833 79.5,123.5C 82.1667,123.5 84.8333,123.5 87.5,123.5C 87.5,122.167 87.5,120.833 87.5,119.5C 94.1667,118.167 100.833,116.833 107.5,115.5C 107.5,114.167 107.5,112.833 107.5,111.5C 110.167,111.5 112.833,111.5 115.5,111.5C 115.5,110.167 115.5,108.833 115.5,107.5C 116.833,107.5 118.167,107.5 119.5,107.5C 119.5,106.167 119.5,104.833 119.5,103.5C 123.5,103.5 127.5,103.5 131.5,103.5C 131.5,102.167 131.5,100.833 131.5,99.5C 134.167,99.5 136.833,99.5 139.5,99.5C 139.105,96.4775 140.105,95.4775 142.5,96.5C 143.5,96 144.5,95.5 145.5,95C 143.293,94.3747 141.96,93.5414 141.5,92.5C 145.507,93.0037 149.507,93.1703 153.5,93C 164.752,89.6871 176.085,86.6871 187.5,84C 193.681,83.1808 199.681,83.3475 205.5,84.5 Z"/></g>
<g><path style="opacity:1" fill="#919191" d="M 111.5,85.5 C 104.962,89.4473 98.2957,93.4473 91.5,97.5C 87.7257,99.1867 84.059,101.02 80.5,103C 78.8659,103.494 77.1992,103.66 75.5,103.5C 75.5,104.833 75.5,106.167 75.5,107.5C 72.9382,108.371 70.2716,108.371 67.5,107.5C 67.5,108.833 67.5,110.167 67.5,111.5C 64.9885,111.838 62.6552,111.838 60.5,111.5C 59.7348,112.612 58.7348,113.279 57.5,113.5C 69.2446,91.8816 87.2446,82.5482 111.5,85.5 Z"/></g>
<g><path style="opacity:1" fill="#aaaaaa" d="M 205.5,84.5 C 221.157,86.824 233.49,94.4906 242.5,107.5C 240.016,109.483 237.683,111.65 235.5,114C 232.854,114.497 230.187,114.664 227.5,114.5C 192.003,113.519 159.337,122.519 129.5,141.5C 125.754,144.585 121.754,147.251 117.5,149.5C 116.866,148.053 115.699,147.387 114,147.5C 108.232,150.546 102.065,152.046 95.5,152C 93.6277,154.944 90.961,156.111 87.5,155.5C 87.5,156.833 87.5,158.167 87.5,159.5C 85.3337,159.421 83.3337,158.754 81.5,157.5C 76.9915,159.223 72.3248,160.223 67.5,160.5C 67.5,161.5 67.5,162.5 67.5,163.5C 60.7742,163.954 54.1076,163.954 47.5,163.5C 45.9758,161.45 45.8091,165.117 47,174.5C 49.2892,190.082 53.6226,205.082 60,219.5C 60.8136,222.177 62.3136,224.177 64.5,225.5C 64.366,227.292 64.6993,228.958 65.5,230.5C 67.049,233.104 68.7157,235.604 70.5,238C 124.404,238.169 178.237,238.669 232,239.5C 234.62,237.598 236.787,235.265 238.5,232.5C 239.833,229.833 241.167,227.167 242.5,224.5C 242.833,223.833 243.167,223.167 243.5,222.5C 244.391,223.11 245.391,223.443 246.5,223.5C 242.338,231.828 237.671,239.828 232.5,247.5C 231.549,245.882 230.216,244.549 228.5,243.5C 176.541,244.329 124.541,244.829 72.5,245C 73.7736,245.977 73.7736,246.811 72.5,247.5C 52.096,218.965 42.4293,187.299 43.5,152.5C 43.3343,156.846 43.501,161.179 44,165.5C 44.3333,165.167 44.6667,164.833 45,164.5C 45.0999,158.253 45.9332,152.253 47.5,146.5C 51.4126,147.596 55.4126,147.762 59.5,147C 63.9316,146.377 64.2649,145.377 60.5,144C 65.4889,143.501 70.4889,143.334 75.5,143.5C 75.5,142.167 75.5,140.833 75.5,139.5C 78.1667,139.5 80.8333,139.5 83.5,139.5C 83.5,138.167 83.5,136.833 83.5,135.5C 87.5,135.5 91.5,135.5 95.5,135.5C 95.5,134.167 95.5,132.833 95.5,131.5C 98.1667,131.167 100.833,130.833 103.5,130.5C 103.5,131.5 103.5,132.5 103.5,133.5C 106.167,133.5 108.833,133.5 111.5,133.5C 111.5,131.5 111.5,129.5 111.5,127.5C 112.833,127.5 114.167,127.5 115.5,127.5C 115.5,126.167 115.5,124.833 115.5,123.5C 116.833,123.5 118.167,123.5 119.5,123.5C 119.5,124.833 119.5,126.167 119.5,127.5C 120.833,127.5 122.167,127.5 123.5,127.5C 123.5,126.167 123.5,124.833 123.5,123.5C 124.833,123.5 126.167,123.5 127.5,123.5C 127.5,121.833 127.5,120.167 127.5,118.5C 130.167,118.833 132.833,119.167 135.5,119.5C 135.5,118.167 135.5,116.833 135.5,115.5C 139.5,115.5 143.5,115.5 147.5,115.5C 147.5,114.167 147.5,112.833 147.5,111.5C 151.5,111.5 155.5,111.5 159.5,111.5C 159.5,109.833 159.5,108.167 159.5,106.5C 162.167,106.833 164.833,107.167 167.5,107.5C 167.5,106.167 167.5,104.833 167.5,103.5C 170.167,103.5 172.833,103.5 175.5,103.5C 175.5,102.167 175.5,100.833 175.5,99.5C 176.833,99.5 178.167,99.5 179.5,99.5C 179.5,98.1667 179.5,96.8333 179.5,95.5C 183.68,95.8115 187.68,95.1448 191.5,93.5C 190.271,92.7189 188.938,92.2189 187.5,92C 190.146,91.5026 192.813,91.3359 195.5,91.5C 195.5,90.5 195.5,89.5 195.5,88.5C 197.547,88.4889 199.547,88.1556 201.5,87.5C 204.028,86.8311 204.028,85.9978 201.5,85C 202.793,84.51 204.127,84.3433 205.5,84.5 Z"/></g>
<g><path style="opacity:1" fill="#9d9d9d" d="M 111.5,85.5 C 121.934,86.3447 131.934,88.678 141.5,92.5C 141.96,93.5414 143.293,94.3747 145.5,95C 144.5,95.5 143.5,96 142.5,96.5C 140.105,95.4775 139.105,96.4775 139.5,99.5C 136.833,99.5 134.167,99.5 131.5,99.5C 131.5,100.833 131.5,102.167 131.5,103.5C 127.5,103.5 123.5,103.5 119.5,103.5C 119.5,104.833 119.5,106.167 119.5,107.5C 118.167,107.5 116.833,107.5 115.5,107.5C 115.5,108.833 115.5,110.167 115.5,111.5C 112.833,111.5 110.167,111.5 107.5,111.5C 107.5,112.833 107.5,114.167 107.5,115.5C 100.833,116.833 94.1667,118.167 87.5,119.5C 87.5,120.833 87.5,122.167 87.5,123.5C 84.8333,123.5 82.1667,123.5 79.5,123.5C 79.5,124.833 79.5,126.167 79.5,127.5C 75.4659,127.505 71.4659,127.838 67.5,128.5C 67.5,129.5 67.5,130.5 67.5,131.5C 64.8333,131.833 62.1667,132.167 59.5,132.5C 59.5,133.5 59.5,134.5 59.5,135.5C 57.1229,135.784 54.9562,135.784 53,135.5C 51.9563,136.623 51.2896,137.956 51,139.5C 50.5831,138.244 49.7498,137.577 48.5,137.5C 49.6322,129.771 51.9656,122.437 55.5,115.5C 56.1667,114.833 56.8333,114.167 57.5,113.5C 58.7348,113.279 59.7348,112.612 60.5,111.5C 62.6552,111.838 64.9885,111.838 67.5,111.5C 67.5,110.167 67.5,108.833 67.5,107.5C 70.2716,108.371 72.9382,108.371 75.5,107.5C 75.5,106.167 75.5,104.833 75.5,103.5C 77.1992,103.66 78.8659,103.494 80.5,103C 84.059,101.02 87.7257,99.1867 91.5,97.5C 98.2957,93.4473 104.962,89.4473 111.5,85.5 Z"/></g>
<g><path style="opacity:1" fill="#6f6f6f" d="M 416.5,121.5 C 416.5,122.167 416.5,122.833 416.5,123.5C 415.833,123.167 415.167,122.833 414.5,122.5C 411.875,119.185 408.542,116.851 404.5,115.5C 404.047,114.542 403.381,113.708 402.5,113C 388.467,107.979 374.134,107.312 359.5,111C 355.965,111.663 352.965,113.163 350.5,115.5C 346.024,116.657 342.358,118.99 339.5,122.5C 337.833,123.5 336.5,124.833 335.5,126.5C 334.272,127.306 333.272,128.306 332.5,129.5C 332.5,128.833 332.5,128.167 332.5,127.5C 346.6,110.959 364.6,104.126 386.5,107C 398.302,108.402 408.302,113.236 416.5,121.5 Z"/></g>
<g><path style="opacity:1" fill="#343434" d="M 404.5,115.5 C 386.3,115.511 368.3,115.511 350.5,115.5C 352.965,113.163 355.965,111.663 359.5,111C 374.134,107.312 388.467,107.979 402.5,113C 403.381,113.708 404.047,114.542 404.5,115.5 Z"/></g>
<g><path style="opacity:1" fill="#373737" d="M 518.5,112.5 C 521.045,113.451 521.045,114.451 518.5,115.5C 501.103,114.582 484.103,114.248 467.5,114.5C 475.83,109.898 484.83,107.898 494.5,108.5C 502.734,108.681 510.734,110.015 518.5,112.5 Z"/></g>
<g><path style="opacity:1" fill="#6d6d6d" d="M 302.5,115.5 C 302.802,118.059 302.468,120.393 301.5,122.5C 302.091,111.261 296.758,106.428 285.5,108C 278.807,110.549 276.14,115.383 277.5,122.5C 276.532,120.393 276.198,118.059 276.5,115.5C 278.358,108.955 282.858,105.621 290,105.5C 296.683,105.9 300.85,109.233 302.5,115.5 Z"/></g>
<g><path style="opacity:1" fill="#727272" d="M 521.5,112.5 C 520.5,112.5 519.5,112.5 518.5,112.5C 510.734,110.015 502.734,108.681 494.5,108.5C 484.83,107.898 475.83,109.898 467.5,114.5C 466.395,115.6 465.062,116.267 463.5,116.5C 462.833,116.5 462.167,116.5 461.5,116.5C 468.43,110.906 476.43,107.74 485.5,107C 498.126,105.636 510.126,107.469 521.5,112.5 Z"/></g>
<g><path style="opacity:1" fill="#434343" d="M 518.5,112.5 C 519.5,112.5 520.5,112.5 521.5,112.5C 521.552,114.903 521.219,117.236 520.5,119.5C 501.497,119.667 482.497,119.5 463.5,119C 462.402,118.23 462.402,117.397 463.5,116.5C 465.062,116.267 466.395,115.6 467.5,114.5C 484.103,114.248 501.103,114.582 518.5,115.5C 521.045,114.451 521.045,113.451 518.5,112.5 Z"/></g>
<g><path style="opacity:1" fill="#858585" d="M 521.5,112.5 C 522.756,112.461 523.756,112.961 524.5,114C 523.231,117.618 521.898,121.118 520.5,124.5C 520.5,122.833 520.5,121.167 520.5,119.5C 521.219,117.236 521.552,114.903 521.5,112.5 Z"/></g>
<g><path style="opacity:1" fill="#3f3f3f" d="M 350.5,115.5 C 368.3,115.511 386.3,115.511 404.5,115.5C 408.542,116.851 411.875,119.185 414.5,122.5C 389.156,121.186 364.156,121.186 339.5,122.5C 342.358,118.99 346.024,116.657 350.5,115.5 Z"/></g>
<g><path style="opacity:1" fill="#3c3c3c" d="M 301.5,122.5 C 301.672,123.492 301.338,124.158 300.5,124.5C 292.951,123.309 285.617,123.309 278.5,124.5C 278.167,123.833 277.833,123.167 277.5,122.5C 276.14,115.383 278.807,110.549 285.5,108C 296.758,106.428 302.091,111.261 301.5,122.5 Z"/></g>
<g><path style="opacity:1" fill="#343434" d="M 227.5,114.5 C 229.292,115.309 231.292,115.809 233.5,116C 224.894,124.045 219.56,133.878 217.5,145.5C 216.778,145.082 216.278,144.416 216,143.5C 189.339,144.493 162.505,144.827 135.5,144.5C 133.902,142.027 132.402,142.027 131,144.5C 130.487,143.473 129.987,142.473 129.5,141.5C 159.337,122.519 192.003,113.519 227.5,114.5 Z"/></g>
<g><path style="opacity:1" fill="#4b4b4b" d="M 414.5,122.5 C 415.167,122.833 415.833,123.167 416.5,123.5C 418.063,124.945 419.396,126.611 420.5,128.5C 420.389,129.117 420.056,129.617 419.5,130C 410.629,130.423 401.963,130.59 393.5,130.5C 390.764,128.804 387.764,127.638 384.5,127C 377.325,126 370.325,126.5 363.5,128.5C 355.091,127.471 346.591,127.471 338,128.5C 337.005,127.934 336.172,127.267 335.5,126.5C 336.5,124.833 337.833,123.5 339.5,122.5C 364.156,121.186 389.156,121.186 414.5,122.5 Z"/></g>
<g><path style="opacity:1" fill="#545454" d="M 461.5,116.5 C 462.167,116.5 462.833,116.5 463.5,116.5C 462.402,117.397 462.402,118.23 463.5,119C 482.497,119.5 501.497,119.667 520.5,119.5C 520.5,121.167 520.5,122.833 520.5,124.5C 520.167,124.5 519.833,124.5 519.5,124.5C 498.562,125.734 477.562,125.734 456.5,124.5C 458.167,121.833 459.833,119.167 461.5,116.5 Z"/></g>
<g><path style="opacity:1" fill="#646464" d="M 456.5,124.5 C 477.562,125.734 498.562,125.734 519.5,124.5C 519.576,129.398 517.243,131.732 512.5,131.5C 512.167,131.5 511.833,131.5 511.5,131.5C 510.426,129.716 508.76,128.549 506.5,128C 502.555,127.075 498.555,126.575 494.5,126.5C 481.232,128.212 467.899,128.879 454.5,128.5C 454.229,126.62 454.896,125.287 456.5,124.5 Z"/></g>
<g><path style="opacity:1" fill="#7b7b7b" d="M 461.5,116.5 C 459.833,119.167 458.167,121.833 456.5,124.5C 454.896,125.287 454.229,126.62 454.5,128.5C 467.899,128.879 481.232,128.212 494.5,126.5C 498.555,126.575 502.555,127.075 506.5,128C 508.76,128.549 510.426,129.716 511.5,131.5C 499.94,127.228 488.607,127.561 477.5,132.5C 468.995,134.539 460.328,135.039 451.5,134C 450.748,133.329 450.414,132.496 450.5,131.5C 452.242,125.091 455.909,120.091 461.5,116.5 Z"/></g>
<g><path style="opacity:1" fill="#8e8e8e" d="M 276.5,115.5 C 276.198,118.059 276.532,120.393 277.5,122.5C 277.833,123.167 278.167,123.833 278.5,124.5C 280.479,128.919 283.979,131.253 289,131.5C 294.444,131.54 298.277,129.206 300.5,124.5C 301.338,124.158 301.672,123.492 301.5,122.5C 302.468,120.393 302.802,118.059 302.5,115.5C 304.608,125.772 300.275,131.772 289.5,133.5C 278.725,131.772 274.392,125.772 276.5,115.5 Z"/></g>
<g><path style="opacity:1" fill="#4c4c4c" d="M 300.5,124.5 C 298.277,129.206 294.444,131.54 289,131.5C 283.979,131.253 280.479,128.919 278.5,124.5C 285.617,123.309 292.951,123.309 300.5,124.5 Z"/></g>
<g><path style="opacity:1" fill="#919191" d="M 519.5,124.5 C 519.833,124.5 520.167,124.5 520.5,124.5C 520.119,128.024 519.119,131.358 517.5,134.5C 515.604,133.725 513.937,132.725 512.5,131.5C 517.243,131.732 519.576,129.398 519.5,124.5 Z"/></g>
<g><path style="opacity:1" fill="#5c5c5c" d="M 335.5,126.5 C 336.172,127.267 337.005,127.934 338,128.5C 346.591,127.471 355.091,127.471 363.5,128.5C 359.878,130.787 356.545,133.453 353.5,136.5C 345.127,135.797 337.127,135.13 329.5,134.5C 330.248,132.668 331.248,131.001 332.5,129.5C 333.272,128.306 334.272,127.306 335.5,126.5 Z"/></g>
<g><path style="opacity:1" fill="#989898" d="M 450.5,131.5 C 450.414,132.496 450.748,133.329 451.5,134C 460.328,135.039 468.995,134.539 477.5,132.5C 475.262,135.43 473.929,138.763 473.5,142.5C 473.649,143.552 473.483,144.552 473,145.5C 472.691,144.234 472.191,143.067 471.5,142C 464.476,141.169 457.476,141.336 450.5,142.5C 450.006,144.026 449.339,145.359 448.5,146.5C 448.096,141.217 448.762,136.217 450.5,131.5 Z"/></g>
<g><path style="opacity:1" fill="#8a8a8a" d="M 53.5,114.5 C 53.8417,115.338 54.5084,115.672 55.5,115.5C 51.9656,122.437 49.6322,129.771 48.5,137.5C 47.701,140.43 47.3677,143.43 47.5,146.5C 45.9332,152.253 45.0999,158.253 45,164.5C 44.6667,164.833 44.3333,165.167 44,165.5C 43.501,161.179 43.3343,156.846 43.5,152.5C 43.4183,138.821 46.7516,126.155 53.5,114.5 Z"/></g>
<g><path style="opacity:1" fill="#3b3b3b" d="M 129.5,141.5 C 129.987,142.473 130.487,143.473 131,144.5C 132.402,142.027 133.902,142.027 135.5,144.5C 162.505,144.827 189.339,144.493 216,143.5C 216.278,144.416 216.778,145.082 217.5,145.5C 216.551,150.74 216.218,156.073 216.5,161.5C 215.523,158.713 215.19,155.713 215.5,152.5C 183.165,152.667 150.832,152.5 118.5,152C 117.944,151.617 117.611,151.117 117.5,150.5C 117.5,150.167 117.5,149.833 117.5,149.5C 121.754,147.251 125.754,144.585 129.5,141.5 Z"/></g>
<g><path style="opacity:1" fill="#adadad" d="M 473.5,142.5 C 474.319,146.282 476.319,149.449 479.5,152C 489.718,156.941 499.718,162.108 509.5,167.5C 504.521,165.346 499.521,163.179 494.5,161C 491.937,159.921 489.271,159.421 486.5,159.5C 486.611,158.883 486.944,158.383 487.5,158C 482.33,156.245 477.996,153.245 474.5,149C 466.585,147.599 458.585,147.099 450.5,147.5C 450.841,152.192 452.341,156.526 455,160.5C 456.011,161.337 457.178,161.67 458.5,161.5C 458.389,162.117 458.056,162.617 457.5,163C 460.039,165.37 462.372,167.87 464.5,170.5C 454.795,165.454 449.462,157.454 448.5,146.5C 449.339,145.359 450.006,144.026 450.5,142.5C 457.476,141.336 464.476,141.169 471.5,142C 472.191,143.067 472.691,144.234 473,145.5C 473.483,144.552 473.649,143.552 473.5,142.5 Z"/></g>
<g><path style="opacity:1" fill="#b2b2b2" d="M 117.5,149.5 C 117.5,149.833 117.5,150.167 117.5,150.5C 112.54,153.792 108.207,157.792 104.5,162.5C 102.167,164.167 100.167,166.167 98.5,168.5C 93.1079,173.56 88.4413,179.226 84.5,185.5C 81.6654,189.164 79.332,193.164 77.5,197.5C 75.0764,200.008 73.4097,203.008 72.5,206.5C 70.659,208.849 69.3257,211.515 68.5,214.5C 66.9802,216.89 65.9802,219.557 65.5,222.5C 64.596,223.209 64.2627,224.209 64.5,225.5C 62.3136,224.177 60.8136,222.177 60,219.5C 53.6226,205.082 49.2892,190.082 47,174.5C 45.8091,165.117 45.9758,161.45 47.5,163.5C 54.1076,163.954 60.7742,163.954 67.5,163.5C 67.5,162.5 67.5,161.5 67.5,160.5C 72.3248,160.223 76.9915,159.223 81.5,157.5C 83.3337,158.754 85.3337,159.421 87.5,159.5C 87.5,158.167 87.5,156.833 87.5,155.5C 90.961,156.111 93.6277,154.944 95.5,152C 102.065,152.046 108.232,150.546 114,147.5C 115.699,147.387 116.866,148.053 117.5,149.5 Z"/></g>
<g><path style="opacity:1" fill="#414141" d="M 117.5,150.5 C 117.611,151.117 117.944,151.617 118.5,152C 150.832,152.5 183.165,152.667 215.5,152.5C 215.19,155.713 215.523,158.713 216.5,161.5C 216.688,163.103 216.188,164.437 215,165.5C 179.238,164.67 143.405,164.17 107.5,164C 143.167,163.667 178.833,163.333 214.5,163C 178.595,162.83 142.762,162.33 107,161.5C 106.658,163.619 105.825,163.953 104.5,162.5C 108.207,157.792 112.54,153.792 117.5,150.5 Z"/></g>
<g><path style="opacity:1" fill="#d0d0d0" d="M 486.5,159.5 C 477.171,160.218 467.838,160.884 458.5,161.5C 457.178,161.67 456.011,161.337 455,160.5C 452.341,156.526 450.841,152.192 450.5,147.5C 458.585,147.099 466.585,147.599 474.5,149C 477.996,153.245 482.33,156.245 487.5,158C 486.944,158.383 486.611,158.883 486.5,159.5 Z"/></g>
<g><path style="opacity:1" fill="#9b9b9b" d="M 416.5,121.5 C 426.104,130.373 431.771,141.373 433.5,154.5C 433.663,156.857 433.497,159.19 433,161.5C 425.667,160.167 418.333,160.167 411,161.5C 409.79,158.497 408.29,155.83 406.5,153.5C 398.413,129.121 382.747,122.288 359.5,133C 352.385,139.08 347.719,146.58 345.5,155.5C 344.768,156.808 343.934,158.142 343,159.5C 335.667,158.167 328.333,158.167 321,159.5C 320.505,157.527 320.338,155.527 320.5,153.5C 321.831,143.51 325.831,134.843 332.5,127.5C 332.5,128.167 332.5,128.833 332.5,129.5C 331.248,131.001 330.248,132.668 329.5,134.5C 327.755,136.033 326.755,138.033 326.5,140.5C 324.132,142.956 323.132,145.956 323.5,149.5C 330.175,149.666 336.842,149.5 343.5,149C 344.766,148.691 345.933,148.191 347,147.5C 347.366,145.548 348.199,143.882 349.5,142.5C 350.441,140.228 351.774,138.228 353.5,136.5C 356.545,133.453 359.878,130.787 363.5,128.5C 370.325,126.5 377.325,126 384.5,127C 387.764,127.638 390.764,128.804 393.5,130.5C 396.07,132.614 398.403,134.947 400.5,137.5C 401.752,139.001 402.752,140.668 403.5,142.5C 404.693,145.052 406.027,147.552 407.5,150C 415.197,151.455 422.864,151.955 430.5,151.5C 430.833,151 431.167,150.5 431.5,150C 430.564,147.02 429.564,144.186 428.5,141.5C 428.068,140.29 427.401,139.29 426.5,138.5C 425.502,134.495 423.502,131.161 420.5,128.5C 419.396,126.611 418.063,124.945 416.5,123.5C 416.5,122.833 416.5,122.167 416.5,121.5 Z"/></g>
<g><path style="opacity:1" fill="#848484" d="M 428.5,141.5 C 429.564,144.186 430.564,147.02 431.5,150C 431.167,150.5 430.833,151 430.5,151.5C 422.864,151.955 415.197,151.455 407.5,150C 406.027,147.552 404.693,145.052 403.5,142.5C 411.835,142.741 420.168,142.407 428.5,141.5 Z"/></g>
<g><path style="opacity:1" fill="#838383" d="M 326.5,140.5 C 326.611,141.117 326.944,141.617 327.5,142C 334.826,142.5 342.159,142.666 349.5,142.5C 348.199,143.882 347.366,145.548 347,147.5C 345.933,148.191 344.766,148.691 343.5,149C 336.842,149.5 330.175,149.666 323.5,149.5C 323.132,145.956 324.132,142.956 326.5,140.5 Z"/></g>
<g><path style="opacity:1" fill="#6f6f6f" d="M 400.5,137.5 C 409.347,137.177 418.014,137.511 426.5,138.5C 427.401,139.29 428.068,140.29 428.5,141.5C 420.168,142.407 411.835,142.741 403.5,142.5C 402.752,140.668 401.752,139.001 400.5,137.5 Z"/></g>
<g><path style="opacity:1" fill="#6d6d6d" d="M 329.5,134.5 C 337.127,135.13 345.127,135.797 353.5,136.5C 351.774,138.228 350.441,140.228 349.5,142.5C 342.159,142.666 334.826,142.5 327.5,142C 326.944,141.617 326.611,141.117 326.5,140.5C 326.755,138.033 327.755,136.033 329.5,134.5 Z"/></g>
<g><path style="opacity:1" fill="#606060" d="M 420.5,128.5 C 423.502,131.161 425.502,134.495 426.5,138.5C 418.014,137.511 409.347,137.177 400.5,137.5C 398.403,134.947 396.07,132.614 393.5,130.5C 401.963,130.59 410.629,130.423 419.5,130C 420.056,129.617 420.389,129.117 420.5,128.5 Z"/></g>
<g><path style="opacity:1" fill="#2e2e2e" d="M 486.5,159.5 C 489.271,159.421 491.937,159.921 494.5,161C 499.521,163.179 504.521,165.346 509.5,167.5C 509.833,168.167 510.167,168.833 510.5,169.5C 509.849,170.091 509.182,170.757 508.5,171.5C 508.089,170.738 507.923,169.738 508,168.5C 495.895,169.157 483.729,169.824 471.5,170.5C 471.291,171.086 470.957,171.586 470.5,172C 471.756,172.417 472.423,173.25 472.5,174.5C 471.609,173.89 470.609,173.557 469.5,173.5C 469.027,172.094 468.027,171.427 466.5,171.5C 465.508,171.672 464.842,171.338 464.5,170.5C 462.372,167.87 460.039,165.37 457.5,163C 458.056,162.617 458.389,162.117 458.5,161.5C 467.838,160.884 477.171,160.218 486.5,159.5 Z"/></g>
<g><path style="opacity:1" fill="#474747" d="M 216.5,161.5 C 217.581,164.627 218.247,167.96 218.5,171.5C 218.631,172.239 218.464,172.906 218,173.5C 217,172.5 216,171.5 215,170.5C 176.667,171.167 138.333,171.833 100,172.5C 99.2086,171.255 98.7086,169.922 98.5,168.5C 100.167,166.167 102.167,164.167 104.5,162.5C 105.825,163.953 106.658,163.619 107,161.5C 142.762,162.33 178.595,162.83 214.5,163C 178.833,163.333 143.167,163.667 107.5,164C 143.405,164.17 179.238,164.67 215,165.5C 216.188,164.437 216.688,163.103 216.5,161.5 Z"/></g>
<g><path style="opacity:1" fill="#b4b4b4" d="M 406.5,153.5 C 408.29,155.83 409.79,158.497 411,161.5C 418.333,160.167 425.667,160.167 433,161.5C 433.497,159.19 433.663,156.857 433.5,154.5C 434.201,157.563 434.868,160.73 435.5,164C 435.272,164.399 434.938,164.565 434.5,164.5C 432.585,164.216 430.919,164.549 429.5,165.5C 423.529,166.645 417.529,167.645 411.5,168.5C 410.511,172.107 410.177,175.774 410.5,179.5C 409.706,182.802 409.04,186.135 408.5,189.5C 407.596,190.209 407.263,191.209 407.5,192.5C 405.989,195.005 404.655,197.672 403.5,200.5C 402.5,201.833 401.5,203.167 400.5,204.5C 400.167,204.5 399.833,204.5 399.5,204.5C 409.533,188.627 411.866,171.627 406.5,153.5 Z"/></g>
<g><path style="opacity:1" fill="#bdbdbd" d="M 320.5,153.5 C 320.338,155.527 320.505,157.527 321,159.5C 328.333,158.167 335.667,158.167 343,159.5C 343.934,158.142 344.768,156.808 345.5,155.5C 341.419,173.227 344.419,189.56 354.5,204.5C 353.833,204.5 353.167,204.5 352.5,204.5C 350.485,201.131 348.485,197.798 346.5,194.5C 345.285,190.368 343.951,186.368 342.5,182.5C 342.676,178.711 342.676,174.711 342.5,170.5C 335.202,169.441 327.869,169.274 320.5,170C 319.369,175.113 319.369,180.28 320.5,185.5C 320.167,185.5 319.833,185.5 319.5,185.5C 318.834,181.18 318.501,176.68 318.5,172C 318.289,165.586 318.955,159.419 320.5,153.5 Z"/></g>
<g><path style="opacity:1" fill="#bababa" d="M 276.5,142.5 C 285.167,142.5 293.833,142.5 302.5,142.5C 301.754,173.158 301.754,203.825 302.5,234.5C 293.833,234.5 285.167,234.5 276.5,234.5C 277.112,203.824 277.112,173.157 276.5,142.5 Z"/></g>
<g><path style="opacity:1" fill="#a7a7a7" d="M 300.5,162.5 C 300.756,164.792 300.423,166.959 299.5,169C 292.508,169.5 285.508,169.666 278.5,169.5C 278.5,167.5 278.5,165.5 278.5,163.5C 285.746,162.536 293.08,162.203 300.5,162.5 Z"/></g>
<g><path style="opacity:1" fill="#939393" d="M 300.5,152.5 C 300.5,149.833 300.5,147.167 300.5,144.5C 293.167,144.5 285.833,144.5 278.5,144.5C 278.5,148.167 278.5,151.833 278.5,155.5C 285.833,155.5 293.167,155.5 300.5,155.5C 300.5,157.833 300.5,160.167 300.5,162.5C 293.08,162.203 285.746,162.536 278.5,163.5C 277.861,156.852 277.527,150.186 277.5,143.5C 285.5,143.5 293.5,143.5 301.5,143.5C 301.81,146.713 301.477,149.713 300.5,152.5 Z"/></g>
<g><path style="opacity:1" fill="#7c7c7c" d="M 300.5,152.5 C 300.5,153.5 300.5,154.5 300.5,155.5C 293.167,155.5 285.833,155.5 278.5,155.5C 278.5,151.833 278.5,148.167 278.5,144.5C 285.833,144.5 293.167,144.5 300.5,144.5C 300.5,147.167 300.5,149.833 300.5,152.5 Z"/></g>
<g><path style="opacity:1" fill="#323232" d="M 429.5,165.5 C 430.833,165.5 432.167,165.5 433.5,165.5C 433.593,171.863 433.26,178.196 432.5,184.5C 431.539,182.735 431.205,180.735 431.5,178.5C 424.412,178.205 417.412,178.538 410.5,179.5C 410.177,175.774 410.511,172.107 411.5,168.5C 417.529,167.645 423.529,166.645 429.5,165.5 Z"/></g>
<g><path style="opacity:1" fill="#373737" d="M 510.5,169.5 C 511.167,169.5 511.833,169.5 512.5,169.5C 513.167,169.5 513.5,169.833 513.5,170.5C 513.973,171.906 514.973,172.573 516.5,172.5C 517.5,172.833 518.167,173.5 518.5,174.5C 520.122,177.455 522.122,180.122 524.5,182.5C 524.5,183.5 524.5,184.5 524.5,185.5C 524.565,185.938 524.399,186.272 524,186.5C 523.363,184.697 522.197,183.364 520.5,182.5C 512.341,182.41 504.007,182.577 495.5,183C 496.672,183.419 497.672,184.085 498.5,185C 498.272,185.399 497.938,185.565 497.5,185.5C 492.832,182.666 487.832,180.666 482.5,179.5C 481.22,178.069 479.553,177.402 477.5,177.5C 476.486,176.326 475.153,175.66 473.5,175.5C 473.5,174.833 473.167,174.5 472.5,174.5C 472.423,173.25 471.756,172.417 470.5,172C 470.957,171.586 471.291,171.086 471.5,170.5C 483.729,169.824 495.895,169.157 508,168.5C 507.923,169.738 508.089,170.738 508.5,171.5C 509.182,170.757 509.849,170.091 510.5,169.5 Z"/></g>
<g><path style="opacity:1" fill="#acacac" d="M 509.5,167.5 C 511.027,167.427 512.027,168.094 512.5,169.5C 511.833,169.5 511.167,169.5 510.5,169.5C 510.167,168.833 509.833,168.167 509.5,167.5 Z"/></g>
<g><path style="opacity:1" fill="#a6a6a6" d="M 513.5,170.5 C 515.027,170.427 516.027,171.094 516.5,172.5C 514.973,172.573 513.973,171.906 513.5,170.5 Z"/></g>
<g><path style="opacity:1" fill="#d5d5d5" d="M 342.5,182.5 C 335.929,184.476 329.262,186.143 322.5,187.5C 321.167,187.5 320.5,186.833 320.5,185.5C 319.369,180.28 319.369,175.113 320.5,170C 327.869,169.274 335.202,169.441 342.5,170.5C 342.676,174.711 342.676,178.711 342.5,182.5 Z"/></g>
<g><path style="opacity:1" fill="#a0a0a0" d="M 466.5,171.5 C 468.027,171.427 469.027,172.094 469.5,173.5C 467.973,173.573 466.973,172.906 466.5,171.5 Z"/></g>
<g><path style="opacity:1" fill="#b2b2b2" d="M 469.5,173.5 C 470.609,173.557 471.609,173.89 472.5,174.5C 473.167,174.5 473.5,174.833 473.5,175.5C 471.62,175.771 470.287,175.104 469.5,173.5 Z"/></g>
<g><path style="opacity:1" fill="#b5b5b5" d="M 473.5,175.5 C 475.153,175.66 476.486,176.326 477.5,177.5C 475.62,177.771 474.287,177.104 473.5,175.5 Z"/></g>
<g><path style="opacity:1" fill="#525252" d="M 98.5,168.5 C 98.7086,169.922 99.2086,171.255 100,172.5C 138.333,171.833 176.667,171.167 215,170.5C 216,171.5 217,172.5 218,173.5C 218.464,172.906 218.631,172.239 218.5,171.5C 221.017,176.372 223.351,181.372 225.5,186.5C 224.922,187.547 224.256,187.38 223.5,186C 176.863,185.51 130.529,185.344 84.5,185.5C 88.4413,179.226 93.1079,173.56 98.5,168.5 Z"/></g>
<g><path style="opacity:1" fill="#b8b8b8" d="M 477.5,177.5 C 479.553,177.402 481.22,178.069 482.5,179.5C 480.447,179.598 478.78,178.931 477.5,177.5 Z"/></g>
<g><path style="opacity:1" fill="#a3a3a3" d="M 518.5,174.5 C 521.647,176.313 523.647,178.98 524.5,182.5C 522.122,180.122 520.122,177.455 518.5,174.5 Z"/></g>
<g><path style="opacity:1" fill="#3f3f3f" d="M 432.5,184.5 C 432.167,186.5 431.833,188.5 431.5,190.5C 430.566,189.432 430.232,188.099 430.5,186.5C 424.158,186.334 417.825,186.5 411.5,187C 410.299,187.903 409.465,189.069 409,190.5C 408.601,190.272 408.435,189.938 408.5,189.5C 409.04,186.135 409.706,182.802 410.5,179.5C 417.412,178.538 424.412,178.205 431.5,178.5C 431.205,180.735 431.539,182.735 432.5,184.5 Z"/></g>
<g><path style="opacity:1" fill="#d9d9d9" d="M 300.5,194.5 C 299.508,194.328 298.842,194.662 298.5,195.5C 292.297,196.937 286.297,198.937 280.5,201.5C 279.177,198.062 278.51,194.229 278.5,190C 278.667,186.167 278.833,182.333 279,178.5C 286.054,178.31 293.221,178.31 300.5,178.5C 300.5,183.833 300.5,189.167 300.5,194.5 Z"/></g>
<g><path style="opacity:1" fill="#5e5e5e" d="M 84.5,185.5 C 130.529,185.344 176.863,185.51 223.5,186C 224.256,187.38 224.922,187.547 225.5,186.5C 228.185,189.19 230.518,192.19 232.5,195.5C 232.631,196.239 232.464,196.906 232,197.5C 179.948,196.194 128.448,196.194 77.5,197.5C 79.332,193.164 81.6654,189.164 84.5,185.5 Z"/></g>
<g><path style="opacity:1" fill="#4d4d4d" d="M 342.5,182.5 C 343.951,186.368 345.285,190.368 346.5,194.5C 339.157,196.202 331.491,197.202 323.5,197.5C 321.583,194.272 321.249,190.938 322.5,187.5C 329.262,186.143 335.929,184.476 342.5,182.5 Z"/></g>
<g><path style="opacity:1" fill="#6b6b6b" d="M 232.5,195.5 C 236.558,198.89 240.891,201.89 245.5,204.5C 245.389,205.117 245.056,205.617 244.5,206C 187.263,206.169 130.096,206.669 73,207.5C 72.6012,207.272 72.4346,206.938 72.5,206.5C 73.4097,203.008 75.0764,200.008 77.5,197.5C 128.448,196.194 179.948,196.194 232,197.5C 232.464,196.906 232.631,196.239 232.5,195.5 Z"/></g>
<g><path style="opacity:1" fill="#686868" d="M 298.5,195.5 C 300.402,198.337 301.069,201.671 300.5,205.5C 293.167,206.833 285.833,206.833 278.5,205.5C 278.5,204.5 278.5,203.5 278.5,202.5C 279.492,202.672 280.158,202.338 280.5,201.5C 286.297,198.937 292.297,196.937 298.5,195.5 Z"/></g>
<g><path style="opacity:1" fill="#9d9d9d" d="M 220.5,145.5 C 217.799,166.593 224.465,184.093 240.5,198C 244.468,200.711 248.802,202.544 253.5,203.5C 251.963,210.444 249.63,217.11 246.5,223.5C 245.391,223.443 244.391,223.11 243.5,222.5C 243.893,220.716 244.559,219.05 245.5,217.5C 247.428,213.715 248.762,209.715 249.5,205.5C 248.041,205.567 246.708,205.234 245.5,204.5C 240.891,201.89 236.558,198.89 232.5,195.5C 230.518,192.19 228.185,189.19 225.5,186.5C 223.351,181.372 221.017,176.372 218.5,171.5C 218.247,167.96 217.581,164.627 216.5,161.5C 216.218,156.073 216.551,150.74 217.5,145.5C 218.268,144.737 218.768,143.737 219,142.5C 219.232,143.737 219.732,144.737 220.5,145.5 Z"/></g>
<g><path style="opacity:1" fill="#8b8b8b" d="M 298.5,195.5 C 298.842,194.662 299.508,194.328 300.5,194.5C 301.495,207.323 301.829,220.323 301.5,233.5C 293.5,233.5 285.5,233.5 277.5,233.5C 277.172,222.986 277.506,212.653 278.5,202.5C 278.5,203.5 278.5,204.5 278.5,205.5C 278.244,207.792 278.577,209.959 279.5,212C 286.492,212.5 293.492,212.666 300.5,212.5C 300.5,210.167 300.5,207.833 300.5,205.5C 301.069,201.671 300.402,198.337 298.5,195.5 Z"/></g>
<g><path style="opacity:1" fill="#7d7d7d" d="M 278.5,205.5 C 285.833,206.833 293.167,206.833 300.5,205.5C 300.5,207.833 300.5,210.167 300.5,212.5C 293.492,212.666 286.492,212.5 279.5,212C 278.577,209.959 278.244,207.792 278.5,205.5 Z"/></g>
<g><path style="opacity:1" fill="#959595" d="M 429.5,165.5 C 430.919,164.549 432.585,164.216 434.5,164.5C 436.55,183.635 432.05,200.968 421,216.5C 418.63,219.039 416.13,221.372 413.5,223.5C 413.5,223.167 413.5,222.833 413.5,222.5C 414.141,221.518 414.807,220.518 415.5,219.5C 389.5,218.167 363.5,218.167 337.5,219.5C 338.188,220.855 339.188,221.855 340.5,222.5C 342.858,224.678 345.525,226.345 348.5,227.5C 354.066,231.021 360.066,233.354 366.5,234.5C 366.5,234.833 366.5,235.167 366.5,235.5C 339.179,229.844 323.512,213.177 319.5,185.5C 319.833,185.5 320.167,185.5 320.5,185.5C 320.5,186.833 321.167,187.5 322.5,187.5C 321.249,190.938 321.583,194.272 323.5,197.5C 324.676,201.357 326.343,205.024 328.5,208.5C 329.476,209.815 330.476,211.148 331.5,212.5C 341.149,213.665 350.816,213.832 360.5,213C 358.63,210.96 356.63,209.127 354.5,207.5C 353.833,206.5 353.167,205.5 352.5,204.5C 353.167,204.5 353.833,204.5 354.5,204.5C 364.307,214.793 375.973,217.293 389.5,212C 393.276,210.053 396.61,207.553 399.5,204.5C 399.833,204.5 400.167,204.5 400.5,204.5C 400.5,204.833 400.5,205.167 400.5,205.5C 397.854,207.479 395.521,209.812 393.5,212.5C 402.482,213.665 411.482,213.832 420.5,213C 422.054,210.713 423.721,208.546 425.5,206.5C 426.167,205.167 426.833,203.833 427.5,202.5C 428.167,200.5 428.833,198.5 429.5,196.5C 430.167,194.5 430.833,192.5 431.5,190.5C 431.833,188.5 432.167,186.5 432.5,184.5C 433.26,178.196 433.593,171.863 433.5,165.5C 432.167,165.5 430.833,165.5 429.5,165.5 Z"/></g>
<g><path style="opacity:1" fill="#7e7e7e" d="M 400.5,205.5 C 408.436,206.389 416.769,206.723 425.5,206.5C 423.721,208.546 422.054,210.713 420.5,213C 411.482,213.832 402.482,213.665 393.5,212.5C 395.521,209.812 397.854,207.479 400.5,205.5 Z"/></g>
<g><path style="opacity:1" fill="#7f7f7f" d="M 354.5,207.5 C 356.63,209.127 358.63,210.96 360.5,213C 350.816,213.832 341.149,213.665 331.5,212.5C 330.476,211.148 329.476,209.815 328.5,208.5C 337.39,207.529 346.057,207.196 354.5,207.5 Z"/></g>
<g><path style="opacity:1" fill="#6b6b6b" d="M 403.5,200.5 C 403.369,201.239 403.536,201.906 404,202.5C 411.803,201.211 419.636,201.211 427.5,202.5C 426.833,203.833 426.167,205.167 425.5,206.5C 416.769,206.723 408.436,206.389 400.5,205.5C 400.5,205.167 400.5,204.833 400.5,204.5C 401.5,203.167 402.5,201.833 403.5,200.5 Z"/></g>
<g><path style="opacity:1" fill="#666666" d="M 346.5,194.5 C 348.485,197.798 350.485,201.131 352.5,204.5C 353.167,205.5 353.833,206.5 354.5,207.5C 346.057,207.196 337.39,207.529 328.5,208.5C 326.343,205.024 324.676,201.357 323.5,197.5C 331.491,197.202 339.157,196.202 346.5,194.5 Z"/></g>
<g><path style="opacity:1" fill="#5b5b5b" d="M 407.5,192.5 C 407.441,194.765 408.274,195.098 410,193.5C 416.748,193.818 423.248,194.818 429.5,196.5C 428.833,198.5 428.167,200.5 427.5,202.5C 419.636,201.211 411.803,201.211 404,202.5C 403.536,201.906 403.369,201.239 403.5,200.5C 404.655,197.672 405.989,195.005 407.5,192.5 Z"/></g>
<g><path style="opacity:1" fill="#4c4c4c" d="M 431.5,190.5 C 430.833,192.5 430.167,194.5 429.5,196.5C 423.248,194.818 416.748,193.818 410,193.5C 408.274,195.098 407.441,194.765 407.5,192.5C 407.263,191.209 407.596,190.209 408.5,189.5C 408.435,189.938 408.601,190.272 409,190.5C 409.465,189.069 410.299,187.903 411.5,187C 417.825,186.5 424.158,186.334 430.5,186.5C 430.232,188.099 430.566,189.432 431.5,190.5 Z"/></g>
<g><path style="opacity:1" fill="#767676" d="M 245.5,204.5 C 246.708,205.234 248.041,205.567 249.5,205.5C 248.762,209.715 247.428,213.715 245.5,217.5C 216.312,216.182 186.979,215.516 157.5,215.5C 127.653,215.51 98.153,215.843 69,216.5C 68.5357,215.906 68.369,215.239 68.5,214.5C 69.3257,211.515 70.659,208.849 72.5,206.5C 72.4346,206.938 72.6012,207.272 73,207.5C 130.096,206.669 187.263,206.169 244.5,206C 245.056,205.617 245.389,205.117 245.5,204.5 Z"/></g>
<g><path style="opacity:1" fill="#939393" d="M 482.5,179.5 C 487.832,180.666 492.832,182.666 497.5,185.5C 501.076,188.402 503.409,192.069 504.5,196.5C 504.54,199.881 504.207,203.214 503.5,206.5C 502.404,208.103 501.07,209.603 499.5,211C 503.245,212.045 507.079,212.545 511,212.5C 515.121,212.015 519.121,212.015 523,212.5C 524.663,210.842 525.496,208.842 525.5,206.5C 526.423,202.936 526.756,199.269 526.5,195.5C 526.841,191.84 526.175,188.507 524.5,185.5C 524.5,184.5 524.5,183.5 524.5,182.5C 531.854,199.594 528.521,214.427 514.5,227C 504.313,233.441 493.147,236.608 481,236.5C 468.24,236.573 456.407,233.407 445.5,227C 447.454,220.01 449.787,213.177 452.5,206.5C 465.1,213.388 478.433,215.555 492.5,213C 502.362,208.712 505.196,201.546 501,191.5C 495.672,186.093 489.505,182.093 482.5,179.5 Z"/></g>
<g><path style="opacity:1" fill="#7c7c7c" d="M 525.5,206.5 C 525.496,208.842 524.663,210.842 523,212.5C 519.121,212.015 515.121,212.015 511,212.5C 507.079,212.545 503.245,212.045 499.5,211C 501.07,209.603 502.404,208.103 503.5,206.5C 510.713,206.338 518.046,206.338 525.5,206.5 Z"/></g>
<g><path style="opacity:1" fill="#636363" d="M 526.5,195.5 C 526.756,199.269 526.423,202.936 525.5,206.5C 518.046,206.338 510.713,206.338 503.5,206.5C 504.207,203.214 504.54,199.881 504.5,196.5C 505.265,195.34 506.265,194.34 507.5,193.5C 513.863,194.167 520.196,194.834 526.5,195.5 Z"/></g>
<g><path style="opacity:1" fill="#474747" d="M 524.5,185.5 C 526.175,188.507 526.841,191.84 526.5,195.5C 520.196,194.834 513.863,194.167 507.5,193.5C 506.265,194.34 505.265,195.34 504.5,196.5C 503.409,192.069 501.076,188.402 497.5,185.5C 497.938,185.565 498.272,185.399 498.5,185C 497.672,184.085 496.672,183.419 495.5,183C 504.007,182.577 512.341,182.41 520.5,182.5C 522.197,183.364 523.363,184.697 524,186.5C 524.399,186.272 524.565,185.938 524.5,185.5 Z"/></g>
<g><path style="opacity:1" fill="#848484" d="M 68.5,214.5 C 68.369,215.239 68.5357,215.906 69,216.5C 98.153,215.843 127.653,215.51 157.5,215.5C 186.979,215.516 216.312,216.182 245.5,217.5C 244.559,219.05 243.893,220.716 243.5,222.5C 243.167,223.167 242.833,223.833 242.5,224.5C 183.667,224.502 124.833,224.502 66,224.5C 65.5357,223.906 65.369,223.239 65.5,222.5C 65.9802,219.557 66.9802,216.89 68.5,214.5 Z"/></g>
<g><path style="opacity:1" fill="#a8a8a8" d="M 413.5,222.5 C 412.391,222.557 411.391,222.89 410.5,223.5C 388.431,222.828 366.264,222.162 344,221.5C 342.791,221.653 341.625,221.986 340.5,222.5C 339.188,221.855 338.188,220.855 337.5,219.5C 363.5,218.167 389.5,218.167 415.5,219.5C 414.807,220.518 414.141,221.518 413.5,222.5 Z"/></g>
<g><path style="opacity:1" fill="#a8a8a8" d="M 516.5,222.5 C 494.338,222.815 472.005,222.481 449.5,221.5C 449.5,220.5 449.5,219.5 449.5,218.5C 472.843,218.167 496.176,218.5 519.5,219.5C 518.812,220.855 517.812,221.855 516.5,222.5 Z"/></g>
<g><path style="opacity:1" fill="#b8b8b8" d="M 340.5,222.5 C 341.625,221.986 342.791,221.653 344,221.5C 366.264,222.162 388.431,222.828 410.5,223.5C 408.795,225.192 406.795,226.525 404.5,227.5C 387.098,226.827 369.598,226.16 352,225.5C 350.698,226.085 349.531,226.751 348.5,227.5C 345.525,226.345 342.858,224.678 340.5,222.5 Z"/></g>
<g><path style="opacity:1" fill="#b5b5b5" d="M 300.5,227.5 C 299.778,227.082 299.278,226.416 299,225.5C 292.043,226.422 285.21,226.755 278.5,226.5C 278.5,223.833 278.5,221.167 278.5,218.5C 285.833,218.5 293.167,218.5 300.5,218.5C 300.5,221.5 300.5,224.5 300.5,227.5 Z"/></g>
<g><path style="opacity:1" fill="#bbbbbb" d="M 449.5,221.5 C 472.005,222.481 494.338,222.815 516.5,222.5C 514.704,224.9 512.37,226.567 509.5,227.5C 489.5,226.167 469.5,226.167 449.5,227.5C 448.427,225.653 448.427,223.653 449.5,221.5 Z"/></g>
<g><path style="opacity:1" fill="#909090" d="M 65.5,222.5 C 65.369,223.239 65.5357,223.906 66,224.5C 124.833,224.502 183.667,224.502 242.5,224.5C 241.167,227.167 239.833,229.833 238.5,232.5C 237.069,232.119 236.236,231.119 236,229.5C 208.047,230.829 179.881,231.496 151.5,231.5C 122.792,231.492 94.1254,231.159 65.5,230.5C 64.6993,228.958 64.366,227.292 64.5,225.5C 64.2627,224.209 64.596,223.209 65.5,222.5 Z"/></g>
<g><path style="opacity:1" fill="#c9c9c9" d="M 300.5,227.5 C 300.5,229.167 300.5,230.833 300.5,232.5C 293.167,232.5 285.833,232.5 278.5,232.5C 278.5,230.5 278.5,228.5 278.5,226.5C 285.21,226.755 292.043,226.422 299,225.5C 299.278,226.416 299.778,227.082 300.5,227.5 Z"/></g>
<g><path style="opacity:1" fill="#c9c9c9" d="M 404.5,227.5 C 392.498,233.16 379.831,235.494 366.5,234.5C 360.066,233.354 354.066,231.021 348.5,227.5C 349.531,226.751 350.698,226.085 352,225.5C 369.598,226.16 387.098,226.827 404.5,227.5 Z"/></g>
<g><path style="opacity:1" fill="#828282" d="M 413.5,222.5 C 413.5,222.833 413.5,223.167 413.5,223.5C 399.64,234.078 383.973,238.078 366.5,235.5C 366.5,235.167 366.5,234.833 366.5,234.5C 379.831,235.494 392.498,233.16 404.5,227.5C 406.795,226.525 408.795,225.192 410.5,223.5C 411.391,222.89 412.391,222.557 413.5,222.5 Z"/></g>
<g><path style="opacity:1" fill="#c9c9c9" d="M 509.5,227.5 C 500.057,232.4 489.89,234.733 479,234.5C 468.553,234.262 458.719,231.929 449.5,227.5C 469.5,226.167 489.5,226.167 509.5,227.5 Z"/></g>
<g><path style="opacity:1" fill="#9d9d9d" d="M 238.5,232.5 C 236.787,235.265 234.62,237.598 232,239.5C 178.237,238.669 124.404,238.169 70.5,238C 68.7157,235.604 67.049,233.104 65.5,230.5C 94.1254,231.159 122.792,231.492 151.5,231.5C 179.881,231.496 208.047,230.829 236,229.5C 236.236,231.119 237.069,232.119 238.5,232.5 Z"/></g>
<g><path style="opacity:1" fill="#b3b3b3" d="M 232.5,247.5 C 225.892,258.273 216.892,266.44 205.5,272C 201.785,273.387 197.952,274.22 194,274.5C 179.968,271.153 165.968,267.819 152,264.5C 147.867,265.291 143.7,266.124 139.5,267C 132.637,269.732 125.637,272.066 118.5,274C 106.728,275.853 96.3948,272.853 87.5,265C 81.541,259.883 76.541,254.05 72.5,247.5C 73.7736,246.811 73.7736,245.977 72.5,245C 124.541,244.829 176.541,244.329 228.5,243.5C 230.216,244.549 231.549,245.882 232.5,247.5 Z"/></g>
<g><path style="opacity:1" fill="#bcbcbc" d="M 222.5,255.5 C 222.631,254.761 222.464,254.094 222,253.5C 175.667,254.833 129.333,254.833 83,253.5C 82.5357,254.094 82.369,254.761 82.5,255.5C 80.6969,253.519 79.0303,251.352 77.5,249C 127.5,248.333 177.5,248.333 227.5,249C 225.97,251.352 224.303,253.519 222.5,255.5 Z"/></g>
<g><path style="opacity:1" fill="#cacaca" d="M 222.5,255.5 C 214.655,265.173 204.488,270.507 192,271.5C 182.816,270.216 173.982,267.716 165.5,264C 156.494,262.041 147.494,262.041 138.5,264C 127.457,269.702 115.79,272.036 103.5,271C 95.1909,267.513 88.1909,262.346 82.5,255.5C 82.369,254.761 82.5357,254.094 83,253.5C 129.333,254.833 175.667,254.833 222,253.5C 222.464,254.094 222.631,254.761 222.5,255.5 Z"/></g>
</svg>
