<?xml version="1.0" encoding="UTF-8"?>
<!DOCTYPE svg PUBLIC "-//W3C//DTD SVG 1.1//EN" "http://www.w3.org/Graphics/SVG/1.1/DTD/svg11.dtd">
<svg xmlns="http://www.w3.org/2000/svg" version="1.1" width="640px" height="175px" style="shape-rendering:geometricPrecision; text-rendering:geometricPrecision; image-rendering:optimizeQuality; fill-rule:evenodd; clip-rule:evenodd" xmlns:xlink="http://www.w3.org/1999/xlink">
<g><path style="opacity:1" fill="#662d92" d="M 132.5,12.5 C 154.619,14.2995 170.785,24.9661 181,44.5C 187.037,61.6152 184.037,76.9485 172,90.5C 167.66,94.0095 163.493,97.6762 159.5,101.5C 172.606,119.259 185.273,137.259 197.5,155.5C 183.873,157.482 169.873,158.149 155.5,157.5C 143.976,141.645 132.31,125.812 120.5,110C 116.514,109.501 112.514,109.334 108.5,109.5C 108.667,125.503 108.5,141.503 108,157.5C 95.4021,158.83 82.9021,158.83 70.5,157.5C 70.3333,109.499 70.5,61.4988 71,13.5C 91.4242,12.5067 111.924,12.1734 132.5,12.5 Z M 108.5,35.5 C 116.75,34.9137 124.75,35.9137 132.5,38.5C 145.702,47.9769 148.535,59.9769 141,74.5C 132.267,83.8334 121.434,87.5 108.5,85.5C 108.5,68.8333 108.5,52.1667 108.5,35.5 Z"/></g>
<g><path style="opacity:1" fill="#623781" d="M 132.5,12.5 C 111.924,12.1734 91.4242,12.5067 71,13.5C 70.5,61.4988 70.3333,109.499 70.5,157.5C 69.5012,109.003 69.1678,60.3362 69.5,11.5C 90.6733,11.1694 111.673,11.5027 132.5,12.5 Z"/></g>
<g><path style="opacity:1" fill="#6d3f8c" d="M 108.5,35.5 C 116.069,34.4461 123.569,34.4461 131,35.5C 131.513,36.5266 132.013,37.5266 132.5,38.5C 124.75,35.9137 116.75,34.9137 108.5,35.5 Z"/></g>
<g><path style="opacity:1" fill="#8d8293" d="M 562.5,40.5 C 563.251,39.4265 564.251,39.2599 565.5,40C 564.552,40.4828 563.552,40.6495 562.5,40.5 Z"/></g>
<g><path style="opacity:1" fill="#9e8aac" d="M 560.5,41.5 C 560.842,40.6618 561.508,40.3284 562.5,40.5C 562.158,41.3382 561.492,41.6716 560.5,41.5 Z"/></g>
<g><path style="opacity:1" fill="#6a5584" d="M 567.5,41.5 C 566.833,40.1667 566.833,40.1667 567.5,41.5 Z"/></g>
<g><path style="opacity:1" fill="#705783" d="M 560.5,41.5 C 560.672,42.4916 560.338,43.1583 559.5,43.5C 559.328,42.5084 559.662,41.8417 560.5,41.5 Z"/></g>
<g><path style="opacity:1" fill="#89719c" d="M 567.5,41.5 C 568.338,41.8417 568.672,42.5084 568.5,43.5C 567.662,43.1583 567.328,42.4916 567.5,41.5 Z"/></g>
<g><path style="opacity:1" fill="#9780ae" d="M 565.5,45.5 C 564.25,45.5774 563.417,46.244 563,47.5C 562.506,45.8659 562.34,44.1992 562.5,42.5C 565.567,42.1205 566.567,43.1205 565.5,45.5 Z"/></g>
<g><path style="opacity:1" fill="#662d92" d="M 233.5,41.5 C 263.995,38.4921 286.162,50.4921 300,77.5C 309.89,107.461 302.39,131.961 277.5,151C 245.866,167.272 218.366,162.106 195,135.5C 178.052,105.359 181.885,78.192 206.5,54C 214.835,48.1624 223.835,43.9958 233.5,41.5 Z M 225.5,109.5 C 225.244,102.776 225.577,96.109 226.5,89.5C 228.223,81.2095 232.557,74.7095 239.5,70C 246.205,68.2715 251.705,70.1048 256,75.5C 263.548,87.5602 265.548,100.56 262,114.5C 259.684,122.478 254.85,128.311 247.5,132C 242.324,132.668 237.824,131.168 234,127.5C 229.772,122.049 226.939,116.049 225.5,109.5 Z"/></g>
<g><path style="opacity:1" fill="#7d768f" d="M 559.5,43.5 C 559.5,44.5 559.5,45.5 559.5,46.5C 558.167,45.5 558.167,44.5 559.5,43.5 Z"/></g>
<g><path style="opacity:1" fill="#662d92" d="M 351.5,44.5 C 351.333,58.8372 351.5,73.1705 352,87.5C 366.369,73.2968 380.869,59.2968 395.5,45.5C 396.391,44.8902 397.391,44.5569 398.5,44.5C 409.988,45.4949 421.655,45.8283 433.5,45.5C 433.5,46.5 433.5,47.5 433.5,48.5C 432.549,49.9187 432.216,51.5853 432.5,53.5C 417.882,68.4525 403.215,83.4525 388.5,98.5C 407.521,117.854 426.521,137.187 445.5,156.5C 430.342,157.496 415.009,157.83 399.5,157.5C 398.761,157.631 398.094,157.464 397.5,157C 382.626,141.959 367.626,127.125 352.5,112.5C 351.501,127.485 351.167,142.485 351.5,157.5C 339.833,157.5 328.167,157.5 316.5,157.5C 316.103,119.909 315.77,82.4094 315.5,45C 327.495,44.5001 339.495,44.3335 351.5,44.5 Z"/></g>
<g><path style="opacity:1" fill="#662d92" d="M 511.5,44.5 C 523.833,44.5 536.167,44.5 548.5,44.5C 548.5,82.1667 548.5,119.833 548.5,157.5C 545.893,158.802 543.227,158.636 540.5,157C 535.313,152.312 529.98,147.812 524.5,143.5C 518.954,148.771 512.621,152.771 505.5,155.5C 503.856,155.714 502.356,155.38 501,154.5C 499.667,157.167 498.333,157.167 497,154.5C 496.5,156.333 495.333,157.5 493.5,158C 486.206,159.672 478.873,159.839 471.5,158.5C 451.468,154.801 440.468,142.801 438.5,122.5C 439.157,96.8113 438.491,71.478 436.5,46.5C 447.988,45.5051 459.655,45.1717 471.5,45.5C 471.667,130.831 472.167,130.831 473,45.5C 473.945,66.9887 474.778,88.322 475.5,109.5C 475.116,113.489 475.783,117.155 477.5,120.5C 479.582,127.225 484.249,130.558 491.5,130.5C 499.589,129.994 505.755,126.328 510,119.5C 510.168,94.33 510.668,69.33 511.5,44.5 Z"/></g>
<g><path style="opacity:1" fill="#673485" d="M 511.5,44.5 C 523.989,43.5046 536.656,43.1713 549.5,43.5C 549.832,81.6703 549.499,119.67 548.5,157.5C 548.5,119.833 548.5,82.1667 548.5,44.5C 536.167,44.5 523.833,44.5 511.5,44.5 Z"/></g>
<g><path style="opacity:1" fill="#8f7e9f" d="M 565.5,45.5 C 566.525,45.8966 566.692,46.5632 566,47.5C 565.536,46.9056 565.369,46.2389 565.5,45.5 Z"/></g>
<g><path style="opacity:1" fill="#836a95" d="M 568.5,43.5 C 569.93,45.4547 569.597,47.1214 567.5,48.5C 568.038,46.8828 568.371,45.2161 568.5,43.5 Z"/></g>
<g><path style="opacity:1" fill="#8d7a9a" d="M 559.5,46.5 C 560.833,47.1667 561.833,48.1667 562.5,49.5C 560.5,49.5 559.5,48.5 559.5,46.5 Z"/></g>
<g><path style="opacity:1" fill="#574562" d="M 567.5,48.5 C 566.833,49.1667 566.833,49.1667 567.5,48.5 Z"/></g>
<g><path style="opacity:1" fill="#92839a" d="M 562.5,49.5 C 563.552,49.3505 564.552,49.5172 565.5,50C 564.251,50.7401 563.251,50.5735 562.5,49.5 Z"/></g>
<g><path style="opacity:1" fill="#764c94" d="M 436.5,46.5 C 438.491,71.478 439.157,96.8113 438.5,122.5C 437.668,98.3368 437.168,74.0034 437,49.5C 435.629,51.0414 434.129,52.3747 432.5,53.5C 432.216,51.5853 432.549,49.9187 433.5,48.5C 434.778,48.2178 435.778,47.5511 436.5,46.5 Z"/></g>
<g><path style="opacity:1" fill="#603386" d="M 477.5,120.5 C 475.783,117.155 475.116,113.489 475.5,109.5C 475.5,87.8333 475.5,66.1667 475.5,44.5C 449.833,44.5 424.167,44.5 398.5,44.5C 397.391,44.5569 396.391,44.8902 395.5,45.5C 422.146,43.5087 449.146,42.842 476.5,43.5C 476.223,69.1854 476.557,94.8521 477.5,120.5 Z"/></g>
<g><path style="opacity:1" fill="#6e3a8c" d="M 351.5,44.5 C 339.495,44.3335 327.495,44.5001 315.5,45C 315.77,82.4094 316.103,119.909 316.5,157.5C 328.167,157.5 339.833,157.5 351.5,157.5C 338.833,158.833 326.167,158.833 313.5,157.5C 314.664,120.336 314.831,83.0023 314,45.5C 313.83,56.3412 313.33,67.0079 312.5,77.5C 312.5,66.1667 312.5,54.8333 312.5,43.5C 325.677,43.1712 338.677,43.5045 351.5,44.5 Z"/></g>
<g><path style="opacity:1" fill="#652797" d="M 398.5,44.5 C 424.167,44.5 449.833,44.5 475.5,44.5C 475.5,66.1667 475.5,87.8333 475.5,109.5C 474.778,88.322 473.945,66.9887 473,45.5C 472.167,130.831 471.667,130.831 471.5,45.5C 459.655,45.1717 447.988,45.5051 436.5,46.5C 435.778,47.5511 434.778,48.2178 433.5,48.5C 433.5,47.5 433.5,46.5 433.5,45.5C 421.655,45.8283 409.988,45.4949 398.5,44.5 Z"/></g>
<g><path style="opacity:1" fill="#7a5298" d="M 226.5,89.5 C 225.577,96.109 225.244,102.776 225.5,109.5C 224.347,103.347 224.18,97.0137 225,90.5C 225.383,89.944 225.883,89.6107 226.5,89.5 Z"/></g>
<g><path style="opacity:1" fill="#622b99" d="M 313.5,157.5 C 312.502,131.005 312.169,104.339 312.5,77.5C 313.33,67.0079 313.83,56.3412 314,45.5C 314.831,83.0023 314.664,120.336 313.5,157.5 Z"/></g>
<g><path style="opacity:1" fill="#693a8f" d="M 505.5,155.5 C 496.757,159.877 487.424,161.377 477.5,160C 475.292,159.809 473.292,159.309 471.5,158.5C 478.873,159.839 486.206,159.672 493.5,158C 495.333,157.5 496.5,156.333 497,154.5C 498.333,157.167 499.667,157.167 501,154.5C 502.356,155.38 503.856,155.714 505.5,155.5 Z"/></g>
<g><path style="opacity:1" fill="#8f76a7" d="M 197.5,155.5 C 198.478,155.811 199.145,156.478 199.5,157.5C 184.672,158.826 170.005,158.826 155.5,157.5C 169.873,158.149 183.873,157.482 197.5,155.5 Z"/></g>
<g><path style="opacity:1" fill="#ab99c3" d="M 445.5,156.5 C 446.289,156.783 446.956,157.283 447.5,158C 431.328,158.828 415.328,158.661 399.5,157.5C 415.009,157.83 430.342,157.496 445.5,156.5 Z"/></g>
</svg>
