<?xml version="1.0" encoding="UTF-8"?>
<!DOCTYPE svg PUBLIC "-//W3C//DTD SVG 1.1//EN" "http://www.w3.org/Graphics/SVG/1.1/DTD/svg11.dtd">
<svg xmlns="http://www.w3.org/2000/svg" version="1.1" width="1024px" height="1024px" style="shape-rendering:geometricPrecision; text-rendering:geometricPrecision; image-rendering:optimizeQuality; fill-rule:evenodd; clip-rule:evenodd" xmlns:xlink="http://www.w3.org/1999/xlink">
<g><path style="opacity:0.004" fill="#30587c" d="M -0.5,-0.5 C 3.16667,-0.5 6.83333,-0.5 10.5,-0.5C 10.0825,0.221579 9.4158,0.721579 8.5,1C 5.51838,1.49796 2.51838,1.66463 -0.5,1.5C -0.5,0.833333 -0.5,0.166667 -0.5,-0.5 Z"/></g>
<g><path style="opacity:1" fill="#fdfdfc" d="M 401.5,68.5 C 412.386,68.6931 421.219,73.0265 428,81.5C 434.686,92.2194 441.853,102.553 449.5,112.5C 490.833,100.5 532.167,100.5 573.5,112.5C 581.147,102.553 588.314,92.2194 595,81.5C 606.455,68.731 619.955,65.8977 635.5,73C 648.907,82.2167 653.407,94.7167 649,110.5C 643.956,120.202 638.123,129.369 631.5,138C 683.093,171.671 708.926,219.504 709,281.5C 734.158,265.152 758.991,265.652 783.5,283C 796.046,293.255 803.546,306.422 806,322.5C 806.667,380.833 806.667,439.167 806,497.5C 797.457,534.202 774.291,551.702 736.5,550C 726.231,548.691 717.064,544.858 709,538.5C 708.853,551.536 708.187,564.536 707,577.5C 700.487,604.013 683.987,620.513 657.5,627C 652.552,628.05 647.552,628.55 642.5,628.5C 642.667,652.836 642.5,677.169 642,701.5C 634.234,733.601 613.9,750.934 581,753.5C 547.19,750.689 526.857,732.689 520,699.5C 519.5,675.836 519.333,652.169 519.5,628.5C 514.167,628.5 508.833,628.5 503.5,628.5C 503.667,652.169 503.5,675.836 503,699.5C 496.143,732.689 475.81,750.689 442,753.5C 409.1,750.934 388.766,733.601 381,701.5C 380.5,677.169 380.333,652.836 380.5,628.5C 352.674,627.846 332.508,615.179 320,590.5C 318.465,586.227 317.131,581.894 316,577.5C 314.813,564.536 314.147,551.536 314,538.5C 295.56,551.432 275.726,553.932 254.5,546C 233.409,536.564 220.909,520.398 217,497.5C 216.333,439.167 216.333,380.833 217,322.5C 220.708,300.58 232.541,284.747 252.5,275C 274.248,266.132 294.748,268.299 314,281.5C 314.074,219.504 339.907,171.671 391.5,138C 384.19,128.55 378.023,118.383 373,107.5C 370.485,85.5372 379.985,72.5372 401.5,68.5 Z"/></g>
<g><path style="opacity:1" fill="#a4c638" d="M 400.5,93.5 C 403.505,93.253 406.005,94.253 408,96.5C 417.633,112.107 427.966,127.107 439,141.5C 472.623,129.352 507.123,125.852 542.5,131C 557.029,133.884 571.362,137.217 585.5,141C 595.457,126.253 605.291,111.419 615,96.5C 618.249,92.6327 621.582,92.6327 625,96.5C 625.667,98.8333 625.667,101.167 625,103.5C 615.304,117.698 605.804,132.031 596.5,146.5C 626.115,160.613 649.615,181.613 667,209.5C 677.49,228.114 682.99,248.114 683.5,269.5C 568.833,269.5 454.167,269.5 339.5,269.5C 339.913,243.349 347.746,219.682 363,198.5C 380.145,176.182 401.312,158.848 426.5,146.5C 417.196,132.031 407.696,117.698 398,103.5C 396.861,99.5789 397.695,96.2456 400.5,93.5 Z"/></g>
<g><path style="opacity:1" fill="#fcfdfa" d="M 433.5,183.5 C 452.216,184.36 459.049,193.693 454,211.5C 447.023,220.829 438.189,222.996 427.5,218C 419.486,211.473 417.319,203.306 421,193.5C 424.191,188.837 428.358,185.503 433.5,183.5 Z"/></g>
<g><path style="opacity:1" fill="#fcfdfa" d="M 580.5,183.5 C 599.056,183.548 606.223,192.548 602,210.5C 595.956,220.396 587.456,223.229 576.5,219C 567.618,212.989 564.785,204.822 568,194.5C 571.148,189.509 575.314,185.843 580.5,183.5 Z"/></g>
<g><path style="opacity:1" fill="#aac952" d="M 682.5,569.5 C 682.5,478.167 682.5,386.833 682.5,295.5C 568.5,295.5 454.5,295.5 340.5,295.5C 340.5,386.833 340.5,478.167 340.5,569.5C 339.501,478.002 339.167,386.335 339.5,294.5C 454.167,294.5 568.833,294.5 683.5,294.5C 683.833,386.335 683.499,478.002 682.5,569.5 Z"/></g>
<g><path style="opacity:1" fill="#a3c538" d="M 272.5,294.5 C 293.751,293.698 307.584,303.365 314,323.5C 314.667,380.833 314.667,438.167 314,495.5C 306.786,519.196 290.953,528.696 266.5,524C 253.327,518.825 245.16,509.325 242,495.5C 241.333,438.5 241.333,381.5 242,324.5C 246.113,308.22 256.279,298.22 272.5,294.5 Z"/></g>
<g><path style="opacity:1" fill="#a3c538" d="M 682.5,569.5 C 679.296,590.035 667.296,601.368 646.5,603.5C 636.833,603.5 627.167,603.5 617.5,603.5C 617.5,635.5 617.5,667.5 617.5,699.5C 611.104,724.542 595.104,734.708 569.5,730C 554.553,724.223 546.22,713.39 544.5,697.5C 544.5,666.167 544.5,634.833 544.5,603.5C 522.5,603.5 500.5,603.5 478.5,603.5C 478.5,633.833 478.5,664.167 478.5,694.5C 472.933,720.547 456.933,731.38 430.5,727C 416.468,721.471 408.134,711.304 405.5,696.5C 405.5,665.5 405.5,634.5 405.5,603.5C 395.5,603.5 385.5,603.5 375.5,603.5C 355.258,600.924 343.592,589.591 340.5,569.5C 340.5,478.167 340.5,386.833 340.5,295.5C 454.5,295.5 568.5,295.5 682.5,295.5C 682.5,386.833 682.5,478.167 682.5,569.5 Z"/></g>
<g><path style="opacity:1" fill="#a3c538" d="M 739.5,294.5 C 761.318,293.644 775.151,303.644 781,324.5C 781.667,381.5 781.667,438.5 781,495.5C 776.197,514.471 764.03,524.471 744.5,525.5C 725.542,524.049 713.708,514.049 709,495.5C 708.333,438.167 708.333,380.833 709,323.5C 713.557,307.773 723.724,298.106 739.5,294.5 Z"/></g>
<g><path style="opacity:1" fill="#dce8c4" d="M 375.5,603.5 C 385.5,603.5 395.5,603.5 405.5,603.5C 405.5,634.5 405.5,665.5 405.5,696.5C 404.502,666.005 404.169,635.338 404.5,604.5C 394.652,604.827 384.986,604.494 375.5,603.5 Z"/></g>
<g><path style="opacity:1" fill="#dce7c4" d="M 646.5,603.5 C 637.348,604.494 628.015,604.827 618.5,604.5C 618.832,636.338 618.498,668.004 617.5,699.5C 617.5,667.5 617.5,635.5 617.5,603.5C 627.167,603.5 636.833,603.5 646.5,603.5 Z"/></g>
<g><path style="opacity:1" fill="#e9f1d5" d="M 544.5,697.5 C 543.502,666.671 543.169,635.671 543.5,604.5C 522.167,604.5 500.833,604.5 479.5,604.5C 479.831,634.671 479.498,664.671 478.5,694.5C 478.5,664.167 478.5,633.833 478.5,603.5C 500.5,603.5 522.5,603.5 544.5,603.5C 544.5,634.833 544.5,666.167 544.5,697.5 Z"/></g>
<g><path style="opacity:1" fill="#fdfdfd" d="M 352.5,851.5 C 375.836,851.333 399.169,851.5 422.5,852C 455.084,859.083 472.417,879.249 474.5,912.5C 473.634,939.522 460.967,958.689 436.5,970C 431.671,971.958 426.671,973.124 421.5,973.5C 398.5,973.5 375.5,973.5 352.5,973.5C 352.5,965.833 352.5,958.167 352.5,950.5C 374.007,950.831 395.34,950.497 416.5,949.5C 443.904,942.91 454.071,925.91 447,898.5C 441.032,886.038 431.199,878.704 417.5,876.5C 396.006,875.503 374.34,875.169 352.5,875.5C 352.5,867.5 352.5,859.5 352.5,851.5 Z"/></g>
<g><path style="opacity:1" fill="#fdfdfd" d="M 155.5,973.5 C 155.5,940.833 155.5,908.167 155.5,875.5C 140.99,875.171 126.657,875.504 112.5,876.5C 90.8377,882.16 80.671,896.16 82,918.5C 85.3957,934.896 95.229,945.062 111.5,949C 117.825,949.5 124.158,949.666 130.5,949.5C 130.5,957.833 130.5,966.167 130.5,974.5C 93.0862,977.399 68.9195,961.066 58,925.5C 53.4296,893.472 65.5963,870.305 94.5,856C 99.0544,854.259 103.721,852.926 108.5,852C 132.164,851.5 155.831,851.333 179.5,851.5C 179.5,892.5 179.5,933.5 179.5,974.5C 171.316,974.826 163.316,974.492 155.5,973.5 Z"/></g>
<g><path style="opacity:1" fill="#fcfcfd" d="M 326.5,906.5 C 326.5,928.833 326.5,951.167 326.5,973.5C 318.833,973.5 311.167,973.5 303.5,973.5C 303.831,952.327 303.497,931.327 302.5,910.5C 299.155,889.654 286.989,878.321 266,876.5C 247.448,877.439 235.448,886.773 230,904.5C 229.667,927.5 229.333,950.5 229,973.5C 220.919,974.482 212.752,974.816 204.5,974.5C 204.047,948.79 204.547,923.123 206,897.5C 212.94,874.226 228.107,859.393 251.5,853C 285.812,847.736 309.978,860.903 324,892.5C 325.475,897.063 326.308,901.73 326.5,906.5 Z"/></g>
<g><path style="opacity:1" fill="#fcfcfd" d="M 621.5,956.5 C 621.5,962.167 621.5,967.833 621.5,973.5C 613.5,973.5 605.5,973.5 597.5,973.5C 598.762,963.795 596.929,954.795 592,946.5C 587.931,941.715 582.764,938.881 576.5,938C 550.835,937.5 525.169,937.333 499.5,937.5C 499.5,929.167 499.5,920.833 499.5,912.5C 527.835,912.667 556.169,912.5 584.5,912C 597.114,905.726 600.281,896.226 594,883.5C 591.441,880.469 588.274,878.302 584.5,877C 556.169,876.5 527.835,876.333 499.5,876.5C 499.5,868.167 499.5,859.833 499.5,851.5C 528.502,851.333 557.502,851.5 586.5,852C 610.825,858.479 622.658,874.312 622,899.5C 620.712,910.577 615.879,919.744 607.5,927C 616.064,934.962 620.73,944.795 621.5,956.5 Z"/></g>
<g><path style="opacity:1" fill="#fbfcfc" d="M 698.5,851.5 C 736.388,849.579 759.888,866.912 769,903.5C 771.297,941.856 753.797,965.356 716.5,974C 684.082,975.963 661.748,961.963 649.5,932C 641.469,896.4 653.802,870.733 686.5,855C 690.623,853.808 694.623,852.641 698.5,851.5 Z M 700.5,876.5 C 730.976,875.475 745.476,890.142 744,920.5C 737.69,941.58 723.523,951.08 701.5,949C 680.172,942.853 670.339,928.686 672,906.5C 675.945,891.059 685.445,881.059 700.5,876.5 Z"/></g>
<g><path style="opacity:1" fill="#fafbfb" d="M 793.5,851.5 C 801.833,851.5 810.167,851.5 818.5,851.5C 818.5,892.5 818.5,933.5 818.5,974.5C 810.248,974.816 802.081,974.482 794,973.5C 793.5,932.835 793.333,892.168 793.5,851.5 Z"/></g>
<g><path style="opacity:1" fill="#fbfcfc" d="M 843.5,851.5 C 867.169,851.333 890.836,851.5 914.5,852C 946.601,859.766 963.934,880.1 966.5,913C 963.689,946.81 945.689,967.143 912.5,974C 889.502,974.5 866.502,974.667 843.5,974.5C 843.5,966.167 843.5,957.833 843.5,949.5C 866.169,949.667 888.836,949.5 911.5,949C 934.871,942.103 944.371,926.603 940,902.5C 935.334,889.168 926.167,880.668 912.5,877C 889.502,876.5 866.502,876.333 843.5,876.5C 843.5,868.167 843.5,859.833 843.5,851.5 Z"/></g>
<g><path style="opacity:1" fill="#c2c9d1" d="M 352.5,851.5 C 352.5,859.5 352.5,867.5 352.5,875.5C 374.34,875.169 396.006,875.503 417.5,876.5C 395.5,876.5 373.5,876.5 351.5,876.5C 351.174,867.983 351.507,859.65 352.5,851.5 Z"/></g>
<g><path style="opacity:1" fill="#a1adbb" d="M 112.5,876.5 C 126.657,875.504 140.99,875.171 155.5,875.5C 155.5,908.167 155.5,940.833 155.5,973.5C 154.502,941.338 154.168,909.004 154.5,876.5C 140.5,876.5 126.5,876.5 112.5,876.5 Z"/></g>
<g><path style="opacity:1" fill="#dbe0e5" d="M 326.5,906.5 C 327.497,928.994 327.831,951.661 327.5,974.5C 319.167,974.5 310.833,974.5 302.5,974.5C 302.5,953.167 302.5,931.833 302.5,910.5C 303.497,931.327 303.831,952.327 303.5,973.5C 311.167,973.5 318.833,973.5 326.5,973.5C 326.5,951.167 326.5,928.833 326.5,906.5 Z"/></g>
<g><path style="opacity:1" fill="#d5dbe2" d="M 416.5,949.5 C 395.34,950.497 374.007,950.831 352.5,950.5C 352.5,958.167 352.5,965.833 352.5,973.5C 375.5,973.5 398.5,973.5 421.5,973.5C 398.339,974.498 375.006,974.831 351.5,974.5C 351.5,966.167 351.5,957.833 351.5,949.5C 373.167,949.5 394.833,949.5 416.5,949.5 Z"/></g>
<g><path style="opacity:1" fill="#d2d8df" d="M 621.5,956.5 C 622.49,962.31 622.823,968.31 622.5,974.5C 613.983,974.826 605.65,974.493 597.5,973.5C 605.5,973.5 613.5,973.5 621.5,973.5C 621.5,967.833 621.5,962.167 621.5,956.5 Z"/></g>
</svg>
